<svg width="9" height="11" viewBox="0 0 9 11" fill="none" xmlns="http://www.w3.org/2000/svg">
<path d="M8.375 4.375C8.375 6.8715 5.6055 9.4715 4.6755 10.2745C4.58886 10.3396 4.4834 10.3749 4.375 10.3749C4.2666 10.3749 4.16114 10.3396 4.0745 10.2745C3.1445 9.4715 0.375 6.8715 0.375 4.375C0.375 3.31413 0.796427 2.29672 1.54657 1.54657C2.29672 0.796427 3.31413 0.375 4.375 0.375C5.43587 0.375 6.45328 0.796427 7.20343 1.54657C7.95357 2.29672 8.375 3.31413 8.375 4.375Z" stroke="#A6A6A6" stroke-width="0.75" stroke-linecap="round" stroke-linejoin="round"/>
<path d="M4.375 5.875C5.20343 5.875 5.875 5.20343 5.875 4.375C5.875 3.54657 5.20343 2.875 4.375 2.875C3.54657 2.875 2.875 3.54657 2.875 4.375C2.875 5.20343 3.54657 5.875 4.375 5.875Z" stroke="#A6A6A6" stroke-width="0.75" stroke-linecap="round" stroke-linejoin="round"/>
</svg>
